<svg viewBox="0 -3 201 124" stroke="DarkGoldenRod" stroke-width="1" fill="transparent" xmlns="http://www.w3.org/2000/svg" xmlns:xlink="http://www.w3.org/1999/xlink" width="201mm" height="124mm" >
  <title>FluentSvg — car following a corridor</title>
  <rect fill="#0b1020" stroke-width="0" x="0" y="0" width="200" height="120"/>
  <path stroke="#334155" stroke-width="22" fill="transparent" stroke-linejoin="round" stroke-linecap="round" d="M178 60 L177.81 63.069286 L177.2409 66.12362 L176.29552 69.14812 L174.97841 72.128044 L173.29602 75.04889 L171.25655 77.89641 L168.8699 80.65675 L166.14775 83.31645 L163.10333 85.86255 L159.75146 88.28265 L156.10849 90.56497 L152.19218 92.69838 L148.02159 94.67247 L143.61703 96.47765 L139 98.10512 L134.19295 99.546936 L129.21931 100.79609 L124.103325 101.84649 L118.8699 102.69301 L113.544556 103.33154 L108.15321 103.758965 L102.72215 103.9732 L97.27784 103.9732 L91.84678 103.758965 L86.455444 103.33154 L81.13008 102.69301 L75.89667 101.84648 L70.78068 100.79609 L65.80705 99.546936 L60.999996 98.10512 L56.382946 96.477646 L51.97841 94.67247 L47.807808 92.69837 L43.891487 90.564964 L40.24852 88.282646 L36.896667 85.86255 L33.85224 83.316444 L31.130089 80.65675 L28.743454 77.89641 L26.703972 75.04888 L25.021591 72.128044 L23.704483 69.14811 L22.759094 66.12362 L22.190002 63.069275 L22 59.999996 L22.190002 56.930717 L22.759094 53.876373 L23.70449 50.851883 L25.021591 47.87195 L26.70398 44.95111 L28.74347 42.103577 L31.130096 39.343246 L33.85225 36.68355 L36.89668 34.137444 L40.248528 31.717346 L43.89151 29.435022 L47.80782 27.301624 L51.9784 25.32753 L56.382954 23.522346 L61.000008 21.894882 L65.80707 20.45306 L70.7807 19.203903 L75.8967 18.153511 L81.13009 17.306988 L86.455444 16.668457 L91.84679 16.241035 L97.277855 16.026802 L102.72218 16.026802 L108.15321 16.241035 L113.54459 16.66846 L118.86991 17.306988 L124.10333 18.153515 L129.21933 19.203915 L134.19296 20.453068 L139.00003 21.89489 L143.61705 23.522346 L148.0216 25.32753 L152.1922 27.301632 L156.10852 29.435038 L159.75148 31.717354 L163.10332 34.137447 L166.14775 36.68355 L168.8699 39.343254 L171.25656 42.103592 L173.29602 44.951103 L174.97841 47.87195 L176.29552 50.851902 L177.2409 53.876404 L177.81 56.930717 L178 60.000008 Z "/>
  <path stroke="#facc15" stroke-width="1" fill="transparent" stroke-dasharray="4 5" stroke-opacity="0.7" d="M178 60 L177.81 63.069286 L177.2409 66.12362 L176.29552 69.14812 L174.97841 72.128044 L173.29602 75.04889 L171.25655 77.89641 L168.8699 80.65675 L166.14775 83.31645 L163.10333 85.86255 L159.75146 88.28265 L156.10849 90.56497 L152.19218 92.69838 L148.02159 94.67247 L143.61703 96.47765 L139 98.10512 L134.19295 99.546936 L129.21931 100.79609 L124.103325 101.84649 L118.8699 102.69301 L113.544556 103.33154 L108.15321 103.758965 L102.72215 103.9732 L97.27784 103.9732 L91.84678 103.758965 L86.455444 103.33154 L81.13008 102.69301 L75.89667 101.84648 L70.78068 100.79609 L65.80705 99.546936 L60.999996 98.10512 L56.382946 96.477646 L51.97841 94.67247 L47.807808 92.69837 L43.891487 90.564964 L40.24852 88.282646 L36.896667 85.86255 L33.85224 83.316444 L31.130089 80.65675 L28.743454 77.89641 L26.703972 75.04888 L25.021591 72.128044 L23.704483 69.14811 L22.759094 66.12362 L22.190002 63.069275 L22 59.999996 L22.190002 56.930717 L22.759094 53.876373 L23.70449 50.851883 L25.021591 47.87195 L26.70398 44.95111 L28.74347 42.103577 L31.130096 39.343246 L33.85225 36.68355 L36.89668 34.137444 L40.248528 31.717346 L43.89151 29.435022 L47.80782 27.301624 L51.9784 25.32753 L56.382954 23.522346 L61.000008 21.894882 L65.80707 20.45306 L70.7807 19.203903 L75.8967 18.153511 L81.13009 17.306988 L86.455444 16.668457 L91.84679 16.241035 L97.277855 16.026802 L102.72218 16.026802 L108.15321 16.241035 L113.54459 16.66846 L118.86991 17.306988 L124.10333 18.153515 L129.21933 19.203915 L134.19296 20.453068 L139.00003 21.89489 L143.61705 23.522346 L148.0216 25.32753 L152.1922 27.301632 L156.10852 29.435038 L159.75148 31.717354 L163.10332 34.137447 L166.14775 36.68355 L168.8699 39.343254 L171.25656 42.103592 L173.29602 44.951103 L174.97841 47.87195 L176.29552 50.851902 L177.2409 53.876404 L177.81 56.930717 L178 60.000008 Z "/>
  <circle  fill="#38bdf8" stroke="#0ea5e9" stroke-width="1" id="b74947" cx="178" cy="60" r="5.5" />
  <circle  fill="#f8fafc" stroke-width="0" id="f1b40c" cx="176.29552" cy="69.14812" r="2.2" />
  <animate repeatCount="indefinite" dur="7s" xlink:href="#b74947" fill="freeze" attributeName="cx"
    values="178;177.81;177.2409;176.29552;174.97841;173.29602;171.25655;168.8699;166.14775;163.10333;159.75146;156.10849;152.19218;148.02159;143.61703;139;134.19295;129.21931;124.103325;118.8699;113.544556;108.15321;102.72215;97.27784;91.84678;86.455444;81.13008;75.89667;70.78068;65.80705;60.999996;56.382946;51.97841;47.807808;43.891487;40.24852;36.896667;33.85224;31.130089;28.743454;26.703972;25.021591;23.704483;22.759094;22.190002;22;22.190002;22.759094;23.70449;25.021591;26.70398;28.74347;31.130096;33.85225;36.89668;40.248528;43.89151;47.80782;51.9784;56.382954;61.000008;65.80707;70.7807;75.8967;81.13009;86.455444;91.84679;97.277855;102.72218;108.15321;113.54459;118.86991;124.10333;129.21933;134.19296;139.00003;143.61705;148.0216;152.1922;156.10852;159.75148;163.10332;166.14775;168.8699;171.25656;173.29602;174.97841;176.29552;177.2409;177.81;178" 
 />
  <animate repeatCount="indefinite" dur="7s" xlink:href="#b74947" fill="freeze" attributeName="cy"
    values="60;63.069286;66.12362;69.14812;72.128044;75.04889;77.89641;80.65675;83.31645;85.86255;88.28265;90.56497;92.69838;94.67247;96.47765;98.10512;99.546936;100.79609;101.84649;102.69301;103.33154;103.758965;103.9732;103.9732;103.758965;103.33154;102.69301;101.84648;100.79609;99.546936;98.10512;96.477646;94.67247;92.69837;90.564964;88.282646;85.86255;83.316444;80.65675;77.89641;75.04888;72.128044;69.14811;66.12362;63.069275;59.999996;56.930717;53.876373;50.851883;47.87195;44.95111;42.103577;39.343246;36.68355;34.137444;31.717346;29.435022;27.301624;25.32753;23.522346;21.894882;20.45306;19.203903;18.153511;17.306988;16.668457;16.241035;16.026802;16.026802;16.241035;16.66846;17.306988;18.153515;19.203915;20.453068;21.89489;23.522346;25.32753;27.301632;29.435038;31.717354;34.137447;36.68355;39.343254;42.103592;44.951103;47.87195;50.851902;53.876404;56.930717;60.000008" 
 />
  <animate repeatCount="indefinite" dur="7s" xlink:href="#f1b40c" fill="freeze" attributeName="cx"
    values="176.29552;174.97841;173.29602;171.25655;168.8699;166.14775;163.10333;159.75146;156.10849;152.19218;148.02159;143.61703;139;134.19295;129.21931;124.103325;118.8699;113.544556;108.15321;102.72215;97.27784;91.84678;86.455444;81.13008;75.89667;70.78068;65.80705;60.999996;56.382946;51.97841;47.807808;43.891487;40.24852;36.896667;33.85224;31.130089;28.743454;26.703972;25.021591;23.704483;22.759094;22.190002;22;22.190002;22.759094;23.70449;25.021591;26.70398;28.74347;31.130096;33.85225;36.89668;40.248528;43.89151;47.80782;51.9784;56.382954;61.000008;65.80707;70.7807;75.8967;81.13009;86.455444;91.84679;97.277855;102.72218;108.15321;113.54459;118.86991;124.10333;129.21933;134.19296;139.00003;143.61705;148.0216;152.1922;156.10852;159.75148;163.10332;166.14775;168.8699;171.25656;173.29602;174.97841;176.29552;177.2409;177.81;178;178;177.81;177.2409" 
 />
  <animate repeatCount="indefinite" dur="7s" xlink:href="#f1b40c" fill="freeze" attributeName="cy"
    values="69.14812;72.128044;75.04889;77.89641;80.65675;83.31645;85.86255;88.28265;90.56497;92.69838;94.67247;96.47765;98.10512;99.546936;100.79609;101.84649;102.69301;103.33154;103.758965;103.9732;103.9732;103.758965;103.33154;102.69301;101.84648;100.79609;99.546936;98.10512;96.477646;94.67247;92.69837;90.564964;88.282646;85.86255;83.316444;80.65675;77.89641;75.04888;72.128044;69.14811;66.12362;63.069275;59.999996;56.930717;53.876373;50.851883;47.87195;44.95111;42.103577;39.343246;36.68355;34.137444;31.717346;29.435022;27.301624;25.32753;23.522346;21.894882;20.45306;19.203903;18.153511;17.306988;16.668457;16.241035;16.026802;16.026802;16.241035;16.66846;17.306988;18.153515;19.203915;20.453068;21.89489;23.522346;25.32753;27.301632;29.435038;31.717354;34.137447;36.68355;39.343254;42.103592;44.951103;47.87195;50.851902;53.876404;56.930717;60.000008;60;63.069286;66.12362" 
 />
  <text x="100" y="12" stroke="transparent" paint-order="stroke" text-anchor="middle" dominant-baseline="middle" fill="#e2e8f0" font-size="6" font-family="sans-serif">AddAnimateXy along a closed path</text>
</svg>
