<svg viewBox="0 -2 241 153" stroke="DarkGoldenRod" stroke-width="1" fill="transparent" xmlns="http://www.w3.org/2000/svg" xmlns:xlink="http://www.w3.org/1999/xlink" width="241mm" height="153mm" >
  <title>FluentSvg — a car steering around a track</title>
  <defs>
    <symbol id="car" overflow="visible">
      <circle  fill="#0f172a" stroke="#334155" stroke-width="1" cx="-6" cy="5" r="3.2" />
      <circle  fill="#0f172a" stroke="#334155" stroke-width="1" cx="6" cy="5" r="3.2" />
      <rect fill="#38bdf8" stroke="#0ea5e9" stroke-width="1" x="-12" y="-5" width="24" height="10" rx="3" ry="3"/>
      <rect fill="#bae6fd" stroke="#0ea5e9" stroke-width="1" x="-7" y="-8.5" width="12" height="7" rx="2" ry="2"/>
      <rect fill="#0f172a" stroke-width="0" x="-5.5" y="-7" width="9" height="4" rx="1" ry="1"/>
      <circle  fill="#fde68a" stroke-width="0" cx="11" cy="-1" r="1.4" />
    </symbol>
  </defs>
  <rect fill="#0b1020" stroke-width="0" x="0" y="0" width="240" height="150"/>
  <path stroke="#334155" stroke-width="26" fill="transparent" stroke-linejoin="round" stroke-linecap="round" d="M212 75 L211.87366 76.74591 L211.49603 78.52584 L210.87125 80.33628 L210.00612 82.173164 L208.90991 84.03192 L207.59424 85.907486 L206.07275 87.79434 L204.36089 89.68656 L202.47543 91.57786 L200.43431 93.46166 L198.25607 95.33114 L195.95963 97.1793 L193.56369 98.99904 L191.0866 100.78323 L188.54575 102.52477 L185.95743 104.21665 L183.33636 105.852066 L180.69562 107.42442 L178.04617 108.92748 L175.39697 110.35534 L172.75467 111.702545 L170.12367 112.96413 L167.50609 114.13566 L164.90182 115.21327 L162.30873 116.19373 L159.72278 117.07442 L157.13821 117.85338 L154.548 118.52933 L151.94388 119.10165 L149.31699 119.57039 L146.65794 119.93626 L143.95743 120.20059 L141.20639 120.365326 L138.39651 120.43295 L135.5205 120.40654 L132.57234 120.289566 L129.54768 120.08597 L126.44404 119.80008 L123.26091 119.43646 L120 119 L116.66525 118.49568 L113.26291 117.92865 L109.8014 117.30405 L106.291336 116.627014 L102.74532 115.90257 L99.177704 115.1356 L95.604416 114.33074 L92.04256 113.492386 L88.51028 112.62457 L85.02615 111.73101 L81.60904 110.81496 L78.2776 109.87926 L75.04985 108.92627 L71.94301 107.95792 L68.97293 106.97559 L66.15391 105.980225 L63.498306 104.97223 L61.016384 103.95159 L58.71615 102.91784 L56.60303 101.870056 L54.679993 100.806984 L52.94741 99.727005 L51.403137 98.628204 L50.042564 97.508446 L48.858856 96.36541 L47.84305 95.19664 L46.984375 93.99963 L46.270523 92.77186 L45.688034 91.51092 L45.22254 90.21448 L44.8593 88.88044 L44.58339 87.506935 L44.380287 86.09241 L44.23609 84.6357 L44.137978 83.136024 L44.07447 81.59307 L44.03576 80.00701 L44.013924 78.378555 L44.00319 76.70895 L44 74.99999 L44.00319 73.254074 L44.013924 71.47415 L44.03576 69.66372 L44.07447 67.82684 L44.137985 65.96807 L44.2361 64.09251 L44.38028 62.205658 L44.58339 60.313427 L44.85929 58.422142 L45.22255 56.53834 L45.688034 54.66885 L46.270523 52.8207 L46.984375 51.000942 L47.84304 49.216774 L48.858864 47.475227 L50.042587 45.783333 L51.403137 44.147926 L52.94742 42.575565 L54.679993 41.07252 L56.60304 39.644657 L58.71616 38.29745 L61.01641 37.03587 L63.498318 35.864334 L66.153885 34.786736 L68.97296 33.806267 L71.94304 32.925575 L75.04984 32.14663 L78.27762 31.470673 L81.60904 30.898357 L85.02619 30.429607 L88.510315 30.063736 L92.042564 29.799416 L95.60444 29.634682 L99.1777 29.56704 L102.745316 29.593468 L106.29138 29.710442 L109.8014 29.914024 L113.26291 30.199924 L116.66526 30.56353 L120 31 L123.26095 31.504322 L126.44404 32.07135 L129.5477 32.695953 L132.57234 33.37299 L135.52051 34.09743 L138.39653 34.864407 L141.2064 35.669262 L143.95744 36.507618 L146.65796 37.375423 L149.31699 38.268993 L151.9439 39.18505 L154.548 40.120754 L157.13824 41.07373 L159.72276 42.042076 L162.30875 43.024406 L164.90184 44.019783 L167.5061 45.02777 L170.12369 46.04841 L172.75467 47.082157 L175.397 48.12995 L178.04619 49.193024 L180.69562 50.272995 L183.33641 51.371803 L185.95741 52.49155 L188.54575 53.634586 L191.08664 54.803375 L193.56369 56.000374 L195.95966 57.22815 L198.25609 58.48908 L200.43431 59.78552 L202.47546 61.119576 L204.36087 62.49307 L206.07275 63.907585 L207.59424 65.364296 L208.90991 66.863976 L210.00612 68.40694 L210.87125 69.99299 L211.49603 71.621445 L211.87366 73.29105 L212 75.00001 Z "/>
  <path stroke="#facc15" stroke-width="1" fill="transparent" stroke-dasharray="5 6" stroke-opacity="0.65" d="M212 75 L211.87366 76.74591 L211.49603 78.52584 L210.87125 80.33628 L210.00612 82.173164 L208.90991 84.03192 L207.59424 85.907486 L206.07275 87.79434 L204.36089 89.68656 L202.47543 91.57786 L200.43431 93.46166 L198.25607 95.33114 L195.95963 97.1793 L193.56369 98.99904 L191.0866 100.78323 L188.54575 102.52477 L185.95743 104.21665 L183.33636 105.852066 L180.69562 107.42442 L178.04617 108.92748 L175.39697 110.35534 L172.75467 111.702545 L170.12367 112.96413 L167.50609 114.13566 L164.90182 115.21327 L162.30873 116.19373 L159.72278 117.07442 L157.13821 117.85338 L154.548 118.52933 L151.94388 119.10165 L149.31699 119.57039 L146.65794 119.93626 L143.95743 120.20059 L141.20639 120.365326 L138.39651 120.43295 L135.5205 120.40654 L132.57234 120.289566 L129.54768 120.08597 L126.44404 119.80008 L123.26091 119.43646 L120 119 L116.66525 118.49568 L113.26291 117.92865 L109.8014 117.30405 L106.291336 116.627014 L102.74532 115.90257 L99.177704 115.1356 L95.604416 114.33074 L92.04256 113.492386 L88.51028 112.62457 L85.02615 111.73101 L81.60904 110.81496 L78.2776 109.87926 L75.04985 108.92627 L71.94301 107.95792 L68.97293 106.97559 L66.15391 105.980225 L63.498306 104.97223 L61.016384 103.95159 L58.71615 102.91784 L56.60303 101.870056 L54.679993 100.806984 L52.94741 99.727005 L51.403137 98.628204 L50.042564 97.508446 L48.858856 96.36541 L47.84305 95.19664 L46.984375 93.99963 L46.270523 92.77186 L45.688034 91.51092 L45.22254 90.21448 L44.8593 88.88044 L44.58339 87.506935 L44.380287 86.09241 L44.23609 84.6357 L44.137978 83.136024 L44.07447 81.59307 L44.03576 80.00701 L44.013924 78.378555 L44.00319 76.70895 L44 74.99999 L44.00319 73.254074 L44.013924 71.47415 L44.03576 69.66372 L44.07447 67.82684 L44.137985 65.96807 L44.2361 64.09251 L44.38028 62.205658 L44.58339 60.313427 L44.85929 58.422142 L45.22255 56.53834 L45.688034 54.66885 L46.270523 52.8207 L46.984375 51.000942 L47.84304 49.216774 L48.858864 47.475227 L50.042587 45.783333 L51.403137 44.147926 L52.94742 42.575565 L54.679993 41.07252 L56.60304 39.644657 L58.71616 38.29745 L61.01641 37.03587 L63.498318 35.864334 L66.153885 34.786736 L68.97296 33.806267 L71.94304 32.925575 L75.04984 32.14663 L78.27762 31.470673 L81.60904 30.898357 L85.02619 30.429607 L88.510315 30.063736 L92.042564 29.799416 L95.60444 29.634682 L99.1777 29.56704 L102.745316 29.593468 L106.29138 29.710442 L109.8014 29.914024 L113.26291 30.199924 L116.66526 30.56353 L120 31 L123.26095 31.504322 L126.44404 32.07135 L129.5477 32.695953 L132.57234 33.37299 L135.52051 34.09743 L138.39653 34.864407 L141.2064 35.669262 L143.95744 36.507618 L146.65796 37.375423 L149.31699 38.268993 L151.9439 39.18505 L154.548 40.120754 L157.13824 41.07373 L159.72276 42.042076 L162.30875 43.024406 L164.90184 44.019783 L167.5061 45.02777 L170.12369 46.04841 L172.75467 47.082157 L175.397 48.12995 L178.04619 49.193024 L180.69562 50.272995 L183.33641 51.371803 L185.95741 52.49155 L188.54575 53.634586 L191.08664 54.803375 L193.56369 56.000374 L195.95966 57.22815 L198.25609 58.48908 L200.43431 59.78552 L202.47546 61.119576 L204.36087 62.49307 L206.07275 63.907585 L207.59424 65.364296 L208.90991 66.863976 L210.00612 68.40694 L210.87125 69.99299 L211.49603 71.621445 L211.87366 73.29105 L212 75.00001 Z "/>
  <use id="41daa0" href="#car" xlink:href="#car" x="0" y="0"/>
  <animateTransform repeatCount="indefinite" dur="9s" xlink:href="#41daa0" attributeName="transform" attributeType="XML" type="translate" fill="freeze"
    values="212 75;211.83502 76.998184;211.3425 79.04016;210.52942 81.12053;209.40732 83.23295;207.99179 85.37021;206.30215 87.52432;204.36089 89.68656;202.19295 91.847595;199.82512 93.99756;197.28525 96.12623;194.6015 98.22309;191.80157 100.27751;188.91202 102.278854;185.95743 104.21665;182.96005 106.0807;179.93909 107.861206;176.91032 109.54896;173.8859 111.135376;170.87407 112.612686;167.87918 113.97396;164.90182 115.21327;161.939 116.3257;158.98447 117.30742;156.02927 118.15573;153.06218 118.869064;150.07039 119.44701;147.04013 119.89024;143.95743 120.20059;140.80878 120.38086;137.58183 120.43486;134.26611 120.36727;130.85355 120.18356;127.33892 119.8899;123.72047 119.49298;120 119;116.18316 118.418396;112.27951 117.755844;108.30234 117.02001;104.26857 116.21854;100.19831 115.358795;96.11458 114.44787;92.04256 113.492386;88.009155 112.49842;84.042175 111.471436;80.16971 110.4162;76.41933 109.33667;72.81738 108.23607;69.38829 107.116745;66.15391 105.980225;63.132885 104.82721;60.34036 103.65761;57.78738 102.47057;55.48079 101.26456;53.42308 100.0374;51.612366 98.78641;50.042564 97.508446;48.70369 96.20007;47.582184 94.85762;46.66146 93.47735;45.922493 92.055534;45.34446 90.588646;44.905487 89.07339;44.58339 87.506935;44.35639 85.88692;44.203896 84.21163;44.10714 82.48006;44.049866 80.69199;44.018814 78.84809;44.004196 76.94992;44 74.99999;44.004196 73.001816;44.01882 70.959816;44.049866 68.87946;44.10714 66.767044;44.203896 64.62979;44.35639 62.47567;44.58339 60.313427;44.905487 58.152412;45.34446 56.00244;45.9225 53.873756;46.66146 51.77691;47.582184 49.72249;48.703697 47.721138;50.042587 45.783333;51.612366 43.919296;53.42308 42.138786;55.48079 40.451046;57.78739 38.864616;60.34037 37.387314;63.13291 36.02603;66.153885 34.786736;69.38832 33.67429;72.81742 32.69257;76.41937 31.844261;80.16971 31.130936;84.04221 30.552998;88.00919 30.109753;92.042564 29.799416;96.11458 29.619137;100.198364 29.56514;104.26856 29.632729;108.302345 29.816437;112.27952 30.1101;116.183174 30.507015;120 31;123.72047 31.581604;127.33897 32.244167;130.85355 32.97999;134.26613 33.781467;137.58185 34.641205;140.80878 35.55213;143.95744 36.507618;147.04015 37.50158;150.0704 38.52856;153.0622 39.58381;156.0293 40.66333;158.9845 41.763935;161.93901 42.883263;164.90184 44.019783;167.87921 45.1728;170.87408 46.3424;173.8859 47.529427;176.91035 48.73545;179.93912 49.96261;182.96005 51.213593;185.95741 52.49155;188.91203 53.799934;191.80157 55.142372;194.6015 56.522644;197.28525 57.944458;199.82515 59.411373;202.19295 60.926605;204.36087 62.49307;206.30215 64.11308;207.99179 65.78837;209.40732 67.51994;210.52942 69.30801;211.3425 71.15191;211.83504 73.05009;212 75.00001" />
  <animateTransform repeatCount="indefinite" dur="9s" xlink:href="#41daa0" attributeName="transform" attributeType="XML" type="rotate" additive="sum" fill="freeze"
    values="94.719864;103.56068;111.347275;117.9769;123.516884;128.1098;131.91765;135.09138;137.76088;140.03357;141.9988;143.73099;145.29305;146.74072;148.12273;149.48566;150.87163;152.32143;153.87189;155.55666;157.4007;159.4208;161.61957;163.98346;166.48177;169.06651;171.67833;174.25117;176.72325;179.04128;181.1678;183.08145;184.77623;186.25993;187.54802;188.66402;189.63281;190.48201;191.23784;191.92702;192.57469;193.20535;193.84378;194.5143;195.24289;196.05823;196.99095;198.07771;199.36084;200.89006;202.72556;204.9366;207.60315;210.81064;214.63994;219.14876;224.33987;230.12413;236.29439;242.5375;248.49289;253.84366;258.38068;262.02365;264.7989;266.80182;268.1654;269.03525;269.5588;269.87674;270.12036;270.4104;270.85498;271.5531;272.5921;274.04938;275.9931;278.4775;281.53986;285.19226;289.41324;294.14035;299.26535;304.64185;310.10208;315.4819;320.6413;325.4807;329.94385;334.01215;337.69507;341.01996;344.02408;346.7476;349.23083;351.51178;353.6246;355.60022;357.46506;359.2425;360.9514;362.6076;364.2229;365.80576;367.35962;368.8849;370.37616;371.82477;373.21695;374.53616;375.7638;376.8808;377.87094;378.72195;379.42847;379.9929;380.42682;380.74936;380.98645;381.16937;381.33237;381.5106;381.74;382.0562;382.4947;383.09152;383.88504;384.91888;386.2418;387.91406;390.00848;392.61652;395.85052;399.8452;404.75565;410.7347;417.88965;426.20465;435.45374;445.1643;454.71982" />
  <text x="120" y="13" stroke="transparent" paint-order="stroke" text-anchor="middle" dominant-baseline="middle" fill="#e2e8f0" font-size="5.400000095367432" font-family="sans-serif">AddSymbol + AddUse, driven by AddAnimateTranslate + AddAnimateRotate</text>
</svg>
