<svg viewBox="-1 0 263 176" stroke="DarkGoldenRod" stroke-width="1" fill="transparent" xmlns="http://www.w3.org/2000/svg" xmlns:xlink="http://www.w3.org/1999/xlink" width="263mm" height="176mm" >
  <title>FluentSvg — primitives</title>
  <rect fill="#0b1020" stroke-width="0" x="0" y="0" width="260" height="170"/>
  <!-- primitive showcase generated by FluentSvg -->
  <rect fill="rgb(70, 130, 180)" stroke="rgb(135, 206, 250)" stroke-width="2" x="14" y="18" width="46" height="30" rx="7" ry="7"/>
  <rect fill="transparent" stroke="#f472b6" stroke-width="2" stroke-dasharray="6 4" x="72" y="18" width="46" height="30"/>
  <circle  fill="#34d399" fill-opacity="0.5" stroke="#10b981" stroke-width="2" cx="150" cy="33" r="15" />
  <ellipse fill="#fbbf24" stroke="#f59e0b" stroke-width="2" cx="214" cy="33" rx="22" ry="13"/>
  <polygon fill="#a78bfa" stroke="#7c3aed" stroke-width="1" points="40,68 44.702282,79.52786 57.11902,80.43769 47.60845,88.47214 50.580135,100.56231 40,94 29.419867,100.56231 32.39155,88.47214 22.880981,80.4377 35.297718,79.52786"/>
  <polyline fill="transparent" stroke="#22d3ee" stroke-width="2" stroke-linejoin="round" points="74,96 90,76 106,96 122,76"/>
  <path stroke="#475569" stroke-width="1" stroke-dasharray="2 3" d="M140 86 L246 86"/>
  <g transform="rotate(-12 196 96)" stroke-opacity="0.9">
    <rect fill="#1e293b" stroke="#38bdf8" stroke-width="1" x="181" y="89" width="30" height="14"/>
    <circle  fill="#38bdf8" stroke-width="0" cx="196" cy="96" r="3" />
  </g>
  <svg x="228" y="78">
    <circle  fill="#f97316" stroke-width="0" cx="8" cy="8" r="6" />
  </svg>
  <text x="130" y="128" stroke="transparent" paint-order="stroke" text-anchor="middle" dominant-baseline="middle" fill="#e2e8f0" font-size="6.5" font-family="sans-serif">shapes · paths · text · groups · clips</text>
  <text x="14" y="146" stroke="transparent" paint-order="stroke" text-anchor="start" fill="#94a3b8" font-size="7" font-family="sans-serif">AlignLeft</text>
  <text x="130" y="146" stroke="transparent" paint-order="stroke" text-anchor="middle" dominant-baseline="middle" fill="#94a3b8" font-size="7" font-family="sans-serif">Center</text>
  <text x="246" y="146" stroke="transparent" paint-order="stroke" text-anchor="end" fill="#94a3b8" font-size="7" font-family="sans-serif">AlignRight</text>
  <text x="130" y="160" stroke="transparent" paint-order="stroke" text-anchor="middle" dominant-baseline="middle" fill="#94a3b8" font-size="6" font-family="serif" font-weight="bold" stroke-opacity="0">2026</text>
</svg>
